<?xml version="1.0" standalone="no"?>
<!DOCTYPE svg PUBLIC "-//W3C//DTD SVG 20010904//EN"
 "http://www.w3.org/TR/2001/REC-SVG-20010904/DTD/svg10.dtd">
<svg version="1.0" xmlns="http://www.w3.org/2000/svg"
 width="512.000000pt" height="512.000000pt" viewBox="0 0 512.000000 512.000000"
 preserveAspectRatio="xMidYMid meet">
<metadata>
Created by potrace 1.16, written by Peter Selinger 2001-2019
</metadata>
<g transform="translate(0.000000,512.000000) scale(0.100000,-0.100000)">
<path d="M2440 4121 c-32 -9 -38 -49 -13 -80 18 -21 21 -22 133 -14 l114 8 19
33 c31 54 15 62 -117 61 -61 -1 -122 -4 -136 -8z"/>
<path d="M2150 4090 c-106 -23 -170 -48 -170 -66 0 -27 41 -96 54 -91 7 3 60
20 117 37 57 18 110 37 117 43 21 17 -2 99 -27 96 -3 0 -44 -9 -91 -19z"/>
<path d="M2846 4097 c-13 -9 -17 -23 -14 -52 3 -38 5 -40 43 -46 22 -3 78 -14
124 -24 82 -17 85 -17 98 1 16 22 9 63 -13 81 -15 11 -111 36 -184 48 -22 3
-43 0 -54 -8z"/>
<path d="M1780 4000 c-19 -11 -50 -24 -67 -31 -61 -21 -124 -68 -135 -99 -6
-17 -17 -30 -27 -30 -27 0 -104 -77 -98 -99 3 -13 -12 -35 -50 -73 -61 -61
-77 -99 -56 -140 7 -16 17 -28 22 -28 14 0 12 -84 -4 -116 -8 -17 -18 -64 -21
-105 -5 -51 -14 -85 -30 -111 -25 -39 -65 -140 -69 -173 -1 -11 -8 -33 -14
-49 -7 -16 -10 -35 -7 -42 2 -6 1 -15 -4 -20 -17 -18 -33 -248 -27 -379 5 -98
14 -158 37 -245 17 -63 36 -144 43 -180 11 -60 71 -200 90 -208 4 -2 7 -12 7
-22 0 -10 4 -21 9 -24 5 -3 24 -32 41 -64 37 -65 97 -142 111 -142 14 0 94
-79 94 -93 0 -6 19 -18 43 -27 23 -8 59 -28 79 -45 57 -47 153 -103 189 -109
7 -1 18 -7 26 -14 21 -17 212 -78 288 -92 36 -7 77 -19 92 -26 14 -8 55 -14
90 -15 35 0 92 -1 128 -2 36 -2 94 3 130 9 36 7 112 20 169 29 93 15 307 84
321 103 3 4 28 22 55 39 28 18 60 41 73 53 12 11 40 27 62 35 113 40 276 214
392 420 56 100 128 293 128 346 0 26 5 42 15 45 11 5 15 22 15 69 0 35 4 74 9
87 20 52 32 235 20 303 -6 36 -15 68 -20 71 -5 3 -9 35 -9 71 0 45 -5 72 -15
83 -12 14 -41 97 -75 215 -4 17 -8 26 -9 21 -1 -5 -8 -3 -16 4 -11 9 -14 32
-13 93 1 48 -3 91 -10 104 -20 37 -15 88 14 122 16 19 23 37 19 48 -3 10 -35
50 -71 88 -36 39 -71 81 -79 95 -17 33 -170 172 -213 194 -19 10 -40 15 -48
12 -7 -3 -36 10 -65 29 -63 43 -100 45 -129 8 -17 -22 -21 -37 -17 -70 4 -36
2 -43 -13 -43 -10 0 -34 -20 -54 -45 -42 -51 -55 -53 -114 -25 -54 26 -195 60
-222 53 -11 -3 -26 -1 -33 5 -13 11 -210 18 -237 9 -8 -3 -49 -8 -90 -12 -109
-9 -123 -11 -140 -18 -19 -7 -110 -28 -130 -29 -8 0 -21 -5 -28 -11 -7 -5 -22
-11 -35 -12 -12 -2 -34 -6 -48 -10 -21 -5 -30 -1 -53 29 -15 20 -34 36 -42 36
-27 0 -54 38 -54 79 0 46 -32 91 -63 90 -12 -1 -38 -9 -57 -19z m-37 -142 c18
-18 46 -45 62 -60 17 -15 35 -33 40 -40 19 -25 100 -123 105 -128 3 -3 16 -19
28 -37 12 -17 31 -35 42 -38 10 -3 66 10 124 29 103 34 258 60 421 70 122 8
309 -22 400 -64 22 -11 63 -22 91 -26 46 -6 53 -4 68 17 9 13 44 62 77 109 33
47 86 109 116 138 94 90 141 81 187 -35 15 -37 34 -81 42 -96 7 -15 19 -57 25
-93 6 -36 17 -71 25 -78 7 -7 13 -22 13 -32 0 -11 5 -41 11 -69 6 -27 12 -57
13 -65 2 -8 7 -23 12 -33 4 -10 5 -53 2 -94 -3 -42 -2 -83 3 -92 23 -40 53
-109 60 -136 41 -146 40 -142 60 -310 8 -69 6 -318 -3 -383 -19 -132 -79 -306
-112 -325 -8 -4 -15 -14 -15 -21 0 -20 -59 -96 -155 -201 -49 -54 -94 -102
-100 -106 -41 -35 -74 -59 -82 -59 -5 0 -32 -16 -61 -35 -29 -19 -54 -34 -55
-34 -9 1 -56 -22 -61 -29 -13 -22 -160 -73 -277 -96 -172 -34 -253 -41 -270
-24 -10 10 -31 12 -74 8 -72 -6 -241 11 -272 28 -12 7 -38 12 -57 12 -47 0
-171 60 -303 146 -28 19 -56 34 -62 34 -16 0 -231 219 -231 235 0 7 -12 28
-27 46 -27 31 -77 141 -110 239 -8 25 -20 59 -25 75 -6 17 -14 55 -19 85 -4
30 -12 75 -18 100 -28 126 -20 336 18 468 5 17 8 32 6 32 -2 0 2 18 10 39 7
22 11 41 9 44 -2 2 4 25 15 51 11 25 18 46 15 46 -4 0 8 16 25 35 35 40 38 57
15 76 -14 11 -15 27 -10 97 4 46 11 92 16 101 8 14 36 125 45 176 7 42 55 204
74 249 13 29 32 53 53 66 18 11 34 20 36 20 2 0 18 -15 35 -32z"/>
<path d="M2533 3434 c-16 -41 169 -349 206 -342 32 6 24 56 -20 131 -97 165
-141 227 -160 227 -11 0 -22 -7 -26 -16z"/>
<path d="M2746 3424 c-11 -29 -6 -43 34 -96 22 -29 61 -93 86 -141 47 -92 64
-108 89 -87 23 19 18 50 -24 136 -54 112 -124 204 -155 204 -13 0 -27 -7 -30
-16z"/>
<path d="M3087 3323 c-15 -14 -6 -58 23 -112 41 -75 66 -103 87 -99 29 6 21
65 -17 128 -52 86 -73 104 -93 83z"/>
<path d="M1841 2966 c-51 -18 -111 -74 -133 -124 -12 -25 -22 -77 -25 -121 -5
-64 -2 -83 15 -116 29 -56 79 -100 135 -119 59 -20 100 -20 152 0 22 8 49 18
60 21 33 10 66 45 91 98 65 138 -5 329 -133 364 -49 14 -119 13 -162 -3z"/>
<path d="M3096 2965 c-88 -31 -147 -126 -148 -239 -1 -78 14 -123 57 -174 57
-68 186 -98 278 -66 133 47 197 185 147 317 -27 72 -101 151 -156 166 -53 15
-131 13 -178 -4z"/>
<path d="M2444 2441 c-2 -2 -4 -13 -4 -23 0 -26 62 -51 109 -44 20 3 46 5 58
6 26 0 55 27 51 47 -2 11 -26 14 -106 16 -57 1 -106 0 -108 -2z"/>
<path d="M1543 2363 c-37 -5 -64 -30 -45 -42 18 -11 272 -5 283 6 6 6 4 15 -7
24 -17 14 -162 22 -231 12z"/>
<path d="M3340 2363 c-19 -7 -30 -24 -24 -35 3 -4 72 -8 155 -8 124 0 149 2
149 15 0 8 -9 19 -19 25 -20 10 -234 13 -261 3z"/>
<path d="M2124 2345 c-4 -9 -4 -42 -2 -74 9 -125 86 -186 228 -179 68 3 84 7
122 33 23 17 52 45 64 62 l21 32 30 -43 c16 -23 48 -51 69 -61 48 -23 169 -32
217 -16 47 16 113 89 127 141 15 56 2 115 -25 115 -17 0 -19 -7 -17 -55 5
-106 -59 -180 -157 -180 -101 0 -181 53 -216 143 -18 47 -45 71 -45 39 0 -37
-51 -120 -91 -148 -75 -51 -200 -41 -259 21 -19 20 -24 39 -28 105 -3 60 -8
80 -19 80 -7 0 -16 -7 -19 -15z"/>
<path d="M1740 2251 c-8 -5 -55 -14 -104 -20 -98 -13 -126 -24 -126 -46 0 -22
37 -23 155 -4 87 14 115 25 115 43 0 20 -23 36 -40 27z"/>
<path d="M3344 2236 c-4 -10 -3 -21 2 -25 29 -27 238 -61 256 -43 22 22 -17
45 -94 58 -40 6 -92 15 -115 19 -35 6 -44 5 -49 -9z"/>
<path d="M3885 3466 c-6 -7 -19 -25 -29 -40 l-19 -28 61 -121 c33 -67 65 -135
72 -151 9 -25 14 -28 42 -22 62 12 70 33 38 96 -11 22 -31 68 -43 102 -23 63
-91 178 -105 178 -4 0 -12 -6 -17 -14z"/>
<path d="M1198 3452 c-49 -55 -158 -288 -158 -336 0 -25 16 -36 55 -36 30 0
50 29 120 169 30 60 59 113 65 116 15 10 -14 64 -51 92 -13 11 -19 10 -31 -5z"/>
<path d="M4082 2902 c-40 -16 -43 -19 -38 -47 3 -16 10 -66 16 -110 6 -44 13
-88 16 -97 7 -25 59 -23 85 3 18 18 19 28 14 77 -9 78 -35 192 -43 191 -4 0
-26 -8 -50 -17z"/>
<path d="M992 2888 c-13 -25 -31 -102 -38 -163 -3 -22 -7 -49 -9 -60 -2 -11 2
-28 9 -37 11 -14 19 -16 48 -7 48 13 54 23 62 99 4 36 9 86 13 112 5 44 4 47
-25 62 -41 21 -46 20 -60 -6z"/>
<path d="M964 2544 c-6 -22 -2 -103 10 -227 1 -15 12 -37 23 -49 21 -20 21
-20 48 -2 l26 19 -5 129 c-4 71 -11 135 -17 143 -6 7 -27 13 -45 13 -28 0 -35
-4 -40 -26z"/>
<path d="M4075 2560 c-9 -14 -35 -282 -29 -292 3 -4 25 -8 49 -8 42 0 44 1 55
38 18 64 24 225 8 244 -16 20 -74 33 -83 18z"/>
<path d="M3992 2103 c-6 -10 -13 -33 -17 -51 -3 -17 -22 -55 -42 -83 -44 -64
-73 -128 -66 -145 3 -8 21 -23 39 -35 33 -20 36 -20 54 -4 10 9 35 60 56 112
20 53 43 108 50 122 20 38 17 57 -12 80 -33 26 -50 27 -62 4z"/>
<path d="M1066 2084 c-9 -8 -16 -19 -16 -24 0 -5 -3 -17 -7 -27 -3 -10 -2 -15
2 -10 11 9 45 -75 50 -121 5 -47 58 -136 83 -140 28 -4 72 40 72 70 0 13 -9
39 -20 58 -27 48 -76 149 -89 183 -12 31 -50 37 -75 11z"/>
<path d="M3690 1662 c-21 -17 -21 -18 -5 -66 12 -36 14 -54 6 -70 -5 -12 -13
-37 -17 -56 l-7 -35 49 44 c27 24 61 57 75 74 l27 31 -26 36 c-47 64 -65 72
-102 42z"/>
<path d="M1348 1623 c-24 -21 -45 -39 -47 -40 -7 -5 21 -52 56 -93 30 -35 36
-38 54 -27 12 8 19 23 19 45 0 18 7 49 16 70 15 37 15 37 -13 59 -15 13 -31
23 -35 23 -5 0 -27 -17 -50 -37z"/>
<path d="M1667 1312 c-20 -21 -37 -45 -37 -54 0 -28 185 -128 236 -128 8 0 23
14 34 32 l19 32 -27 29 c-15 16 -55 44 -89 63 -33 19 -67 41 -73 49 -17 21
-21 20 -63 -23z"/>
<path d="M3370 1337 c0 -15 -79 -72 -142 -101 -20 -10 -39 -24 -42 -32 -6 -17
16 -78 33 -88 10 -7 70 14 93 33 7 6 29 24 49 41 20 16 43 30 51 30 8 0 22 6
32 13 16 12 15 16 -16 62 -34 50 -58 68 -58 42z"/>
<path d="M2031 1147 c-16 -16 -14 -72 3 -86 18 -15 154 -60 182 -61 11 0 28 8
37 18 20 22 32 68 19 76 -5 3 -59 18 -120 35 -79 21 -113 26 -121 18z"/>
<path d="M2945 1115 c-105 -34 -113 -42 -96 -88 14 -35 50 -36 154 -1 108 36
122 56 79 107 -19 21 -16 22 -137 -18z"/>
<path d="M2420 1055 c-18 -21 7 -84 37 -91 33 -9 230 0 240 10 4 4 1 13 -8 20
-15 10 -15 14 -3 31 31 42 22 45 -120 45 -105 0 -136 -3 -146 -15z"/>
</g>
</svg>
